<svg width="700" height="160" xmlns="http://www.w3.org/2000/svg" xml:space="preserve" version="1.1">

 <g>
  <title>Layer 1</title>
  <g id="svg_1">
   <path id="svg_2" fill="#F58220" d="m613.5,358.9l1.1,0c0.9,0 1.8,0 1.8,-1.1c0,-0.9 -0.8,-1.1 -1.5,-1.1l-1.4,0l0,2.2m-1.1,-3.1l2.7,0c1.6,0 2.4,0.6 2.4,2c0,1.3 -0.8,1.8 -1.8,1.9l2,3l-1.2,0l-1.9,-3l-1.1,0l0,3l-1.1,0l0,-6.9zm2.3,8.5c2.7,0 4.8,-2.2 4.8,-5.1c0,-2.8 -2.1,-5 -4.8,-5c-2.8,0 -4.9,2.2 -4.9,5c0,2.9 2.2,5.1 4.9,5.1m0,-10.9c3.2,0 5.9,2.5 5.9,5.9c0,3.4 -2.7,5.9 -5.9,5.9c-3.2,0 -5.9,-2.5 -5.9,-5.9c0,-3.4 2.7,-5.9 5.9,-5.9" class="st0"/>
   <path id="svg_3" fill="#F58220" d="m22,294.8c1.1,4.4 10.9,50.8 12.8,61.2c1.4,7.8 6.9,8.9 9.9,9c3.3,0 5.9,0 9.3,-0.7c3.1,-0.7 4.5,-0.7 4.1,-4.4c-0.3,-3.7 0.2,-18.5 4.7,-25.5c0,0 3,9.7 4.3,21.5c0.3,3.3 2.2,6.5 4.7,7.8c2.9,1.5 12,1.8 16.3,0.1c1.9,-0.7 2.2,-1.5 3.1,-11.8c0.3,-3.7 4.4,-44.4 16.8,-66.5c0,0 -4.4,-6.7 -13.6,-6.8c-3,0 -4.4,-0.9 -7.4,4.7c-3.4,6.3 -8,25.1 -8.8,30.3c0,0 -5.1,-10 -5.7,-30c-0.1,-3 -1.1,-3.3 -2.9,-3.4c-1.8,0 -7.7,-1 -10.4,-0.5c-3.1,0.7 -4,-0.6 -3.1,10.7c0,0 -5,21.4 -5.4,28.8c0,0 -9.1,-19.7 -5.6,-37.8c0,0 -12.2,-3.8 -19.6,0.6c-7.5,4.5 -4.3,9.7 -3.5,12.7" class="st0"/>
   <path id="svg_4" fill="#F58220" d="m125.7,330.4c1.1,0 8.9,-0.3 10.4,0.1c1.5,0.4 1.1,0 1.1,1.9c0,1.8 -2.4,17.4 -1.6,20c0.7,2.6 1.1,3.7 2.5,5.2c1.5,1.5 6.7,6.6 9.3,7c2.6,0.4 3.3,-1.8 3.7,-3.7s10.4,-57.1 10.8,-61.6c0.4,-4.4 0.8,-8.1 -2.1,-11.5c-2.9,-3.4 -9.6,-7.8 -15.1,-7.2c-3,0.3 -2.6,-1.1 -3,4.4c-0.4,5.5 -1.7,24.4 -2.1,26.3c-0.4,1.8 -0.3,1.5 -2.2,1.5c-1.1,-0.1 -9.1,0 -10.4,-0.1c-1.2,-0.1 -1.3,0.2 -1.1,-2.2c0.1,-1.5 0.5,-25.1 1.4,-28.5c0.4,-1.5 0.2,-1.9 -2,-1.9c-2.2,0 -8,-0.4 -11.7,1.8c-3.7,2.2 -4.7,1.9 -6.4,9.9c-3.1,14.4 -2.7,54 -2,60.3c0.7,6.3 9.2,10.4 13.6,12c4.4,1.5 5.5,0.8 5.6,-2.2c0,-3 0.2,-28.1 0.2,-29.6c0,-1.9 -0.1,-1.9 1.1,-1.9" class="st0"/>
   <path id="svg_5" fill="#F58220" d="m180,326.8l5.1,-21.3l5.2,21.8l-10.3,-0.5m22.5,-26.8c-1.1,-4.5 0.4,-6.7 -4.3,-11.5c-5.7,-5.8 -14,-8.3 -16.2,-7.9c-2.2,0.4 -1.5,-0.4 -4.5,2.6c-3,2.9 -19,56.5 -19.7,58.7c-0.8,2.2 -1.9,2.9 -0.8,6.7c2,6.8 7.7,13.4 11.3,15.3c3.7,1.9 3.7,-1.1 4.1,-3.3c0.4,-2.2 4.2,-15.1 4.6,-17c0.4,-1.8 0.7,-1.3 2.2,-1.5c1.7,-0.2 9.2,-0.2 10.3,-0.2c1.7,0 1.3,0 1.9,1.8c1.1,3 2.4,10.6 3.5,12.4c1.8,3 15.8,9.1 18,9.6c0,0 3.2,0 3.2,-1.4c0,-4.5 -12.5,-59.8 -13.6,-64.3" class="st0"/>
   <path id="svg_6" fill="#F58220" d="m264.6,326.2l5.7,-22.9l5,23.6l-10.7,-0.7m22.5,-25.1c-2.5,-10.1 -1.9,-8.9 -4.6,-11.5c-6,-5.8 -13.5,-8.6 -15.8,-8.3c-2.3,0.4 -3.6,0.3 -6.8,3.3c-3.1,2.9 -17.8,55.7 -18.6,58c-0.8,2.2 -1.5,4.3 -0.4,8c2.1,6.8 8.7,10.2 12.6,12c3.9,1.9 3.9,-1.1 4.3,-3.3c0.4,-2.2 2.3,-14.8 2.7,-16.6c0.4,-1.8 0.8,-1.1 2.3,-1.5c1.5,-0.4 9.8,0.1 11,0.1c1.2,0 2.4,-0.7 3.2,1.8c1.3,3.6 2.9,11.2 4.1,13.1c1.9,3 13.2,7.9 15.5,7.9c2.3,0 5.2,-0.7 4.9,-4.8c-0.3,-4.3 -13.3,-53.8 -14.4,-58.2" class="st0"/>
   <path id="svg_7" fill="#F58220" d="m254.7,281.3c-6.1,-0.6 -20.5,-0.5 -24.4,-0.2c-3.3,0.2 -10.6,0.6 -14.6,2c-4.1,1.4 -6.7,2.5 -7.8,3.6c-1.1,1.1 -1.5,1.5 -1.5,4.1c0,2.6 -0.4,5.5 -0.4,7.4c0,1.9 0.3,3.3 1.8,4.1c1.5,0.8 3.7,-1.1 12.2,-1.7c0,0 -0.1,12.2 -0.9,17.4c-0.8,5.2 -2.7,26.6 -2.4,32.2c0,0 0.8,5.8 13.8,14c2,1.2 3,0.1 4.5,-1.4c0.9,-0.9 0.5,-2.9 0.5,-4c0,-1.1 -0.1,-29.6 4.6,-60.7c0,0 8.1,-2.4 11.9,-3.2c0,0 3.6,-9.3 4.5,-11.1c0.7,-1.7 -1.8,-2.5 -1.8,-2.5" class="st0"/>
   <path id="svg_8" fill="#F58220" d="m333.2,345.9c-2.6,2.9 -8.5,1.8 -10,1.4c-1.5,-0.4 -2.6,-2.2 -2.9,-4.1c-0.4,-1.8 -0.8,-9.4 -1,-11.9c-0.5,-6.1 -0.3,-4.7 2.3,-4.3c2.6,0.4 8.9,4.2 11,6.9c1.8,2.4 3.2,9.1 0.6,12m-14.2,-34.2c0,-1.5 0.1,-12.9 0.1,-14.8c0,-1.9 0.4,-3 2.2,-2.6c1.9,0.4 3,-0.3 6.6,3.8c3.7,4.1 5.2,12.2 3.3,14.6c-4.9,6.2 -10.1,1.9 -11.2,1.6c-1,-0.4 -1,-1.1 -1,-2.6m34.6,25.1c-0.7,-3 -5.5,-11.1 -10.2,-13.8c0,0 4.1,-3.7 5.6,-8.1c1.5,-4.4 1.9,-19.2 -9.4,-28.6c-5.1,-4.2 -10.7,-6.1 -14.8,-6.8c-2.7,-0.5 -14.1,2.8 -17,2.8c-3,0 -4.1,0.3 -5.2,5.1c-3.3,13.7 -4.5,39.6 0.6,65.5c0.9,4.8 2.1,8.5 7.3,9.7c5.2,1.2 11.1,1.2 11.9,-1.8c0,0 8.1,3.8 12.9,3.4c4.8,-0.3 17.1,-3.5 19.4,-16.9c0.7,-4.1 -0.4,-7.5 -1.1,-10.5" class="st0"/>
   <path id="svg_9" fill="#F58220" d="m374.4,287c-0.8,4.5 -2.9,40.7 3.2,55.9c2.5,6.3 6.6,7 8.5,-0.3c3.4,-13.3 4.9,-31.3 0.1,-54.8c-1.1,-5.2 -2.2,-4.4 3,-4.8c2.2,-0.2 11.1,-0.6 13.3,-0.6c2.2,0 4.6,4.1 5.1,6.3c2.8,13 1,35.5 -2.2,45.9c-4.2,13.3 -7.6,20.7 -15.8,27.6c-5.6,4.8 -15.6,3.9 -22.9,-4.3c-6.7,-7.5 -11.3,-20.8 -13,-34.5c-0.9,-7.1 -1.7,-23.3 0.7,-36.3c0.6,-3.5 2.6,-4.8 4.9,-5.1c2.2,-0.4 10,-0.2 13.3,1.6c2.4,1.4 2.3,0.8 1.8,3.4" class="st0"/>
   <path id="svg_10" fill="#F58220" d="m443.8,306.1c-0.4,6.3 -4.3,11.2 -11.2,15.1c-3,1.7 -2.2,0.4 -2.6,-1.9c-0.9,-5.6 0.9,-17.8 1.3,-20c0.4,-2.2 0,0 1.5,-1.5c1.5,-1.5 3.3,0 6.7,-0.3c3.3,-0.3 4.7,2.3 4.3,8.6m18,53.8c-8.2,-12.5 -16,-31.6 -16,-31.6c2.6,-1.8 9.3,-8.8 12.3,-14.3c3,-5.5 5.7,-18.5 0.2,-25.2c-4.9,-6 -12.1,-8.2 -26.2,-5c0,0 -0.9,-1 -1.8,-2.2c-0.7,-1 -2.6,-1.5 -6.3,-0.8c-3.7,0.7 -6.1,0.7 -7.8,5.5c-6.4,17.7 -6.7,46.6 -4.3,65.1c0.5,3.7 0.5,6.3 3.1,8.2c5.9,4.3 12,5.7 14.9,5.3s3.1,-0.3 2.2,-3.3c-2.2,-7.4 -1.7,-20.7 -1.7,-20.7c13.3,20.4 18,22.1 20.3,23.2c2.2,1.1 7.3,1.1 9.5,0c3.9,-1.9 3.6,-1.1 1.6,-4.2" class="st0"/>
   <path id="svg_11" fill="#F58220" d="m584.8,309.2c-1.5,5.2 -8,9 -10.8,11c-4.1,2.9 -3.1,0.9 -3,-1.4c0.3,-6.8 1.8,-16.1 2.5,-18.2c0.5,-1.5 0.4,-2.7 2.4,-3.4c1.7,-0.5 3.7,-1.3 6.6,0.5c2.9,1.9 4.1,5.4 2.3,11.5m20.3,51.6c-8.9,-12.1 -16.8,-34.5 -16.8,-34.5c2.6,-1.8 8.9,-7.5 11.9,-13.1c3,-5.5 4.7,-15.7 0.4,-23.2c-5.1,-8.9 -14.4,-11.2 -30.7,-6.2c0,0 -1.5,-1.5 -2.8,-2.2c-1.6,-0.7 -2.8,-1.1 -4.2,-0.9c-3.7,0.7 -4.7,2 -6,7c-5.1,19.2 -5.9,39.4 -4.6,59.2c0.3,3.8 0.2,4.9 2.2,7.4c4.8,6 11.4,9 14.4,8.6c3,-0.3 2.9,-0.2 2.3,-3.3c-1.7,-7.3 -0.5,-21.9 -0.5,-21.9c13.1,21.6 18.6,22.4 20.8,23.6c2.2,1.1 10,4.5 12.2,3.4c2.1,-0.9 2.5,-2.4 1.4,-3.9" class="st0"/>
   <path id="svg_12" fill="#F58220" d="m481.4,282c-4.8,2.9 -12.6,7.3 -21.4,35c-3.6,11.3 -1.4,29.6 4.9,37.4c6.2,7.8 10.7,9.3 13.6,10.5c2.9,1.1 4.4,0.4 6.7,-1.1c2.2,-1.5 5.9,-2.9 7.4,-4.4c1.5,-1.5 7.5,-8.5 8.7,-19.9c0,0 1.9,-0.4 3.7,-1.1c1.9,-0.7 2.6,-2.2 3.4,-5.2c0.8,-3 1.5,-6.3 1.2,-8.1c-0.4,-1.9 -2.6,-3.1 -8.2,-3.6c-9.6,-0.7 -15.5,1.8 -16.9,2.6c-2.1,1.2 -1.9,1.1 -2.6,4.4c-0.8,3.3 -1.2,7 -0.8,8.9c0.4,1.9 1.1,1.9 2.6,1.9c1.5,0 0.7,0.8 0,2.6c-0.8,1.8 -2.6,2.6 -3.4,3.7c-0.8,1.1 -2.9,0 -3.3,-2.2c-1.8,-10 1.3,-31.8 11.5,-45.4c5.2,-7 4.4,3.7 3.6,6c-0.8,2.2 -0.4,4.4 1.8,4.8c2.2,0.4 8.9,0.8 10.7,-0.3c1.9,-1.1 4.1,-3.7 4.5,-5.1c0.4,-1.5 1.6,-11.8 -2.1,-15.9c-3.7,-4.1 -4.8,-6 -17.3,-7.2c-3.5,-0.4 -5,-0.3 -8.3,1.7" class="st0"/>
   <path id="svg_13" fill="#F58220" d="m549.5,280.7c-2.2,0.4 -7.4,0.7 -10,0.7c-2.6,0 -13.3,-0.9 -18.1,1c-4.8,1.8 -5.2,1.8 -6,5.9c-0.8,4.1 -3,8.5 -2.8,19.2c0.3,10.7 -1.8,33.3 -2.9,39.6c0,0 -5.2,5.9 -4.9,8.8c0.3,3 1.8,4.1 3.3,5.6c1.5,1.5 2.6,2.6 3.7,3c1.1,0.4 14.8,-3.9 29.6,-2.7c0,0 5.6,-8.8 6.4,-12.5c0.8,-3.7 0.4,-5.5 -2.5,-5.9c-4.1,-0.7 -7.9,-1 -13.3,-0.1c-1.9,0.3 -2.1,0.4 -2.2,-2.2c0,-1.1 0.2,-10.9 0.2,-10.9s0.2,-1.3 1.7,-1.6c1.5,-0.4 10.1,-1.4 12.3,-1.7c0,0 2.2,-7.3 3.3,-9.5c1.9,-3.7 -3.5,-4.9 -1.6,-4.5c-2.2,-0.6 -10.5,0.4 -13.9,1c-1.9,0.4 -0.3,-1.9 -0.2,-3.4c0,-1.5 0.8,-8.5 1.2,-10.4c0,0 10.5,-1.9 12,-1.9c0,0 2.9,-2.7 6.7,-7.4c4.2,-5.7 4.7,-11.1 -2,-10.1" class="st0"/>
  </g>
  <g id="svg_26">
   <path id="svg_14" fill="#F58220" d="m613.5,358.9l1.1,0c0.9,0 1.8,0 1.8,-1.1c0,-0.9 -0.8,-1.1 -1.5,-1.1l-1.4,0l0,2.2m-1.1,-3.1l2.7,0c1.6,0 2.4,0.6 2.4,2c0,1.3 -0.8,1.8 -1.8,1.9l2,3l-1.2,0l-1.9,-3l-1.1,0l0,3l-1.1,0l0,-6.9zm2.3,8.5c2.7,0 4.8,-2.2 4.8,-5.1c0,-2.8 -2.1,-5 -4.8,-5c-2.8,0 -4.9,2.2 -4.9,5c0,2.9 2.2,5.1 4.9,5.1m0,-10.9c3.2,0 5.9,2.5 5.9,5.9c0,3.4 -2.7,5.9 -5.9,5.9c-3.2,0 -5.9,-2.5 -5.9,-5.9c0,-3.4 2.7,-5.9 5.9,-5.9" class="st0"/>
   <path id="svg_15" fill="#F58220" d="m22,294.8c1.1,4.4 10.9,50.8 12.8,61.2c1.4,7.8 6.9,8.9 9.9,9c3.3,0 5.9,0 9.3,-0.7c3.1,-0.7 4.5,-0.7 4.1,-4.4c-0.3,-3.7 0.2,-18.5 4.7,-25.5c0,0 3,9.7 4.3,21.5c0.3,3.3 2.2,6.5 4.7,7.8c2.9,1.5 12,1.8 16.3,0.1c1.9,-0.7 2.2,-1.5 3.1,-11.8c0.3,-3.7 4.4,-44.4 16.8,-66.5c0,0 -4.4,-6.7 -13.6,-6.8c-3,0 -4.4,-0.9 -7.4,4.7c-3.4,6.3 -8,25.1 -8.8,30.3c0,0 -5.1,-10 -5.7,-30c-0.1,-3 -1.1,-3.3 -2.9,-3.4c-1.8,0 -7.7,-1 -10.4,-0.5c-3.1,0.7 -4,-0.6 -3.1,10.7c0,0 -5,21.4 -5.4,28.8c0,0 -9.1,-19.7 -5.6,-37.8c0,0 -12.2,-3.8 -19.6,0.6c-7.5,4.5 -4.3,9.7 -3.5,12.7" class="st0"/>
   <path id="svg_16" fill="#F58220" d="m125.7,330.4c1.1,0 8.9,-0.3 10.4,0.1c1.5,0.4 1.1,0 1.1,1.9c0,1.8 -2.4,17.4 -1.6,20c0.7,2.6 1.1,3.7 2.5,5.2c1.5,1.5 6.7,6.6 9.3,7c2.6,0.4 3.3,-1.8 3.7,-3.7s10.4,-57.1 10.8,-61.6c0.4,-4.4 0.8,-8.1 -2.1,-11.5c-2.9,-3.4 -9.6,-7.8 -15.1,-7.2c-3,0.3 -2.6,-1.1 -3,4.4c-0.4,5.5 -1.7,24.4 -2.1,26.3c-0.4,1.8 -0.3,1.5 -2.2,1.5c-1.1,-0.1 -9.1,0 -10.4,-0.1c-1.2,-0.1 -1.3,0.2 -1.1,-2.2c0.1,-1.5 0.5,-25.1 1.4,-28.5c0.4,-1.5 0.2,-1.9 -2,-1.9c-2.2,0 -8,-0.4 -11.7,1.8c-3.7,2.2 -4.7,1.9 -6.4,9.9c-3.1,14.4 -2.7,54 -2,60.3c0.7,6.3 9.2,10.4 13.6,12c4.4,1.5 5.5,0.8 5.6,-2.2c0,-3 0.2,-28.1 0.2,-29.6c0,-1.9 -0.1,-1.9 1.1,-1.9" class="st0"/>
   <path id="svg_17" fill="#F58220" d="m180,326.8l5.1,-21.3l5.2,21.8l-10.3,-0.5m22.5,-26.8c-1.1,-4.5 0.4,-6.7 -4.3,-11.5c-5.7,-5.8 -14,-8.3 -16.2,-7.9c-2.2,0.4 -1.5,-0.4 -4.5,2.6c-3,2.9 -19,56.5 -19.7,58.7c-0.8,2.2 -1.9,2.9 -0.8,6.7c2,6.8 7.7,13.4 11.3,15.3c3.7,1.9 3.7,-1.1 4.1,-3.3c0.4,-2.2 4.2,-15.1 4.6,-17c0.4,-1.8 0.7,-1.3 2.2,-1.5c1.7,-0.2 9.2,-0.2 10.3,-0.2c1.7,0 1.3,0 1.9,1.8c1.1,3 2.4,10.6 3.5,12.4c1.8,3 15.8,9.1 18,9.6c0,0 3.2,0 3.2,-1.4c0,-4.5 -12.5,-59.8 -13.6,-64.3" class="st0"/>
   <path id="svg_18" fill="#F58220" d="m264.6,326.2l5.7,-22.9l5,23.6l-10.7,-0.7m22.5,-25.1c-2.5,-10.1 -1.9,-8.9 -4.6,-11.5c-6,-5.8 -13.5,-8.6 -15.8,-8.3c-2.3,0.4 -3.6,0.3 -6.8,3.3c-3.1,2.9 -17.8,55.7 -18.6,58c-0.8,2.2 -1.5,4.3 -0.4,8c2.1,6.8 8.7,10.2 12.6,12c3.9,1.9 3.9,-1.1 4.3,-3.3c0.4,-2.2 2.3,-14.8 2.7,-16.6c0.4,-1.8 0.8,-1.1 2.3,-1.5c1.5,-0.4 9.8,0.1 11,0.1c1.2,0 2.4,-0.7 3.2,1.8c1.3,3.6 2.9,11.2 4.1,13.1c1.9,3 13.2,7.9 15.5,7.9c2.3,0 5.2,-0.7 4.9,-4.8c-0.3,-4.3 -13.3,-53.8 -14.4,-58.2" class="st0"/>
   <path id="svg_19" fill="#F58220" d="m254.7,281.3c-6.1,-0.6 -20.5,-0.5 -24.4,-0.2c-3.3,0.2 -10.6,0.6 -14.6,2c-4.1,1.4 -6.7,2.5 -7.8,3.6c-1.1,1.1 -1.5,1.5 -1.5,4.1c0,2.6 -0.4,5.5 -0.4,7.4c0,1.9 0.3,3.3 1.8,4.1c1.5,0.8 3.7,-1.1 12.2,-1.7c0,0 -0.1,12.2 -0.9,17.4c-0.8,5.2 -2.7,26.6 -2.4,32.2c0,0 0.8,5.8 13.8,14c2,1.2 3,0.1 4.5,-1.4c0.9,-0.9 0.5,-2.9 0.5,-4c0,-1.1 -0.1,-29.6 4.6,-60.7c0,0 8.1,-2.4 11.9,-3.2c0,0 3.6,-9.3 4.5,-11.1c0.7,-1.7 -1.8,-2.5 -1.8,-2.5" class="st0"/>
   <path id="svg_20" fill="#F58220" d="m333.2,345.9c-2.6,2.9 -8.5,1.8 -10,1.4c-1.5,-0.4 -2.6,-2.2 -2.9,-4.1c-0.4,-1.8 -0.8,-9.4 -1,-11.9c-0.5,-6.1 -0.3,-4.7 2.3,-4.3c2.6,0.4 8.9,4.2 11,6.9c1.8,2.4 3.2,9.1 0.6,12m-14.2,-34.2c0,-1.5 0.1,-12.9 0.1,-14.8c0,-1.9 0.4,-3 2.2,-2.6c1.9,0.4 3,-0.3 6.6,3.8c3.7,4.1 5.2,12.2 3.3,14.6c-4.9,6.2 -10.1,1.9 -11.2,1.6c-1,-0.4 -1,-1.1 -1,-2.6m34.6,25.1c-0.7,-3 -5.5,-11.1 -10.2,-13.8c0,0 4.1,-3.7 5.6,-8.1c1.5,-4.4 1.9,-19.2 -9.4,-28.6c-5.1,-4.2 -10.7,-6.1 -14.8,-6.8c-2.7,-0.5 -14.1,2.8 -17,2.8c-3,0 -4.1,0.3 -5.2,5.1c-3.3,13.7 -4.5,39.6 0.6,65.5c0.9,4.8 2.1,8.5 7.3,9.7c5.2,1.2 11.1,1.2 11.9,-1.8c0,0 8.1,3.8 12.9,3.4c4.8,-0.3 17.1,-3.5 19.4,-16.9c0.7,-4.1 -0.4,-7.5 -1.1,-10.5" class="st0"/>
   <path id="svg_21" fill="#F58220" d="m374.4,287c-0.8,4.5 -2.9,40.7 3.2,55.9c2.5,6.3 6.6,7 8.5,-0.3c3.4,-13.3 4.9,-31.3 0.1,-54.8c-1.1,-5.2 -2.2,-4.4 3,-4.8c2.2,-0.2 11.1,-0.6 13.3,-0.6c2.2,0 4.6,4.1 5.1,6.3c2.8,13 1,35.5 -2.2,45.9c-4.2,13.3 -7.6,20.7 -15.8,27.6c-5.6,4.8 -15.6,3.9 -22.9,-4.3c-6.7,-7.5 -11.3,-20.8 -13,-34.5c-0.9,-7.1 -1.7,-23.3 0.7,-36.3c0.6,-3.5 2.6,-4.8 4.9,-5.1c2.2,-0.4 10,-0.2 13.3,1.6c2.4,1.4 2.3,0.8 1.8,3.4" class="st0"/>
   <path id="svg_22" fill="#F58220" d="m443.8,306.1c-0.4,6.3 -4.3,11.2 -11.2,15.1c-3,1.7 -2.2,0.4 -2.6,-1.9c-0.9,-5.6 0.9,-17.8 1.3,-20c0.4,-2.2 0,0 1.5,-1.5c1.5,-1.5 3.3,0 6.7,-0.3c3.3,-0.3 4.7,2.3 4.3,8.6m18,53.8c-8.2,-12.5 -16,-31.6 -16,-31.6c2.6,-1.8 9.3,-8.8 12.3,-14.3c3,-5.5 5.7,-18.5 0.2,-25.2c-4.9,-6 -12.1,-8.2 -26.2,-5c0,0 -0.9,-1 -1.8,-2.2c-0.7,-1 -2.6,-1.5 -6.3,-0.8c-3.7,0.7 -6.1,0.7 -7.8,5.5c-6.4,17.7 -6.7,46.6 -4.3,65.1c0.5,3.7 0.5,6.3 3.1,8.2c5.9,4.3 12,5.7 14.9,5.3s3.1,-0.3 2.2,-3.3c-2.2,-7.4 -1.7,-20.7 -1.7,-20.7c13.3,20.4 18,22.1 20.3,23.2c2.2,1.1 7.3,1.1 9.5,0c3.9,-1.9 3.6,-1.1 1.6,-4.2" class="st0"/>
   <path id="svg_23" fill="#F58220" d="m584.8,309.2c-1.5,5.2 -8,9 -10.8,11c-4.1,2.9 -3.1,0.9 -3,-1.4c0.3,-6.8 1.8,-16.1 2.5,-18.2c0.5,-1.5 0.4,-2.7 2.4,-3.4c1.7,-0.5 3.7,-1.3 6.6,0.5c2.9,1.9 4.1,5.4 2.3,11.5m20.3,51.6c-8.9,-12.1 -16.8,-34.5 -16.8,-34.5c2.6,-1.8 8.9,-7.5 11.9,-13.1c3,-5.5 4.7,-15.7 0.4,-23.2c-5.1,-8.9 -14.4,-11.2 -30.7,-6.2c0,0 -1.5,-1.5 -2.8,-2.2c-1.6,-0.7 -2.8,-1.1 -4.2,-0.9c-3.7,0.7 -4.7,2 -6,7c-5.1,19.2 -5.9,39.4 -4.6,59.2c0.3,3.8 0.2,4.9 2.2,7.4c4.8,6 11.4,9 14.4,8.6c3,-0.3 2.9,-0.2 2.3,-3.3c-1.7,-7.3 -0.5,-21.9 -0.5,-21.9c13.1,21.6 18.6,22.4 20.8,23.6c2.2,1.1 10,4.5 12.2,3.4c2.1,-0.9 2.5,-2.4 1.4,-3.9" class="st0"/>
   <path id="svg_24" fill="#F58220" d="m481.4,282c-4.8,2.9 -12.6,7.3 -21.4,35c-3.6,11.3 -1.4,29.6 4.9,37.4c6.2,7.8 10.7,9.3 13.6,10.5c2.9,1.1 4.4,0.4 6.7,-1.1c2.2,-1.5 5.9,-2.9 7.4,-4.4c1.5,-1.5 7.5,-8.5 8.7,-19.9c0,0 1.9,-0.4 3.7,-1.1c1.9,-0.7 2.6,-2.2 3.4,-5.2c0.8,-3 1.5,-6.3 1.2,-8.1c-0.4,-1.9 -2.6,-3.1 -8.2,-3.6c-9.6,-0.7 -15.5,1.8 -16.9,2.6c-2.1,1.2 -1.9,1.1 -2.6,4.4c-0.8,3.3 -1.2,7 -0.8,8.9c0.4,1.9 1.1,1.9 2.6,1.9c1.5,0 0.7,0.8 0,2.6c-0.8,1.8 -2.6,2.6 -3.4,3.7c-0.8,1.1 -2.9,0 -3.3,-2.2c-1.8,-10 1.3,-31.8 11.5,-45.4c5.2,-7 4.4,3.7 3.6,6c-0.8,2.2 -0.4,4.4 1.8,4.8c2.2,0.4 8.9,0.8 10.7,-0.3c1.9,-1.1 4.1,-3.7 4.5,-5.1c0.4,-1.5 1.6,-11.8 -2.1,-15.9c-3.7,-4.1 -4.8,-6 -17.3,-7.2c-3.5,-0.4 -5,-0.3 -8.3,1.7" class="st0"/>
   <path id="svg_25" fill="#F58220" d="m549.5,280.7c-2.2,0.4 -7.4,0.7 -10,0.7c-2.6,0 -13.3,-0.9 -18.1,1c-4.8,1.8 -5.2,1.8 -6,5.9c-0.8,4.1 -3,8.5 -2.8,19.2c0.3,10.7 -1.8,33.3 -2.9,39.6c0,0 -5.2,5.9 -4.9,8.8c0.3,3 1.8,4.1 3.3,5.6c1.5,1.5 2.6,2.6 3.7,3c1.1,0.4 14.8,-3.9 29.6,-2.7c0,0 5.6,-8.8 6.4,-12.5c0.8,-3.7 0.4,-5.5 -2.5,-5.9c-4.1,-0.7 -7.9,-1 -13.3,-0.1c-1.9,0.3 -2.1,0.4 -2.2,-2.2c0,-1.1 0.2,-10.9 0.2,-10.9s0.2,-1.3 1.7,-1.6c1.5,-0.4 10.1,-1.4 12.3,-1.7c0,0 2.2,-7.3 3.3,-9.5c1.9,-3.7 -3.5,-4.9 -1.6,-4.5c-2.2,-0.6 -10.5,0.4 -13.9,1c-1.9,0.4 -0.3,-1.9 -0.2,-3.4c0,-1.5 0.8,-8.5 1.2,-10.4c0,0 10.5,-1.9 12,-1.9c0,0 2.9,-2.7 6.7,-7.4c4.2,-5.7 4.7,-11.1 -2,-10.1" class="st0"/>
  </g>
  <g id="svg_39">
   <path id="svg_27" fill="#F58220" d="m643.5,114.9l1.1,0c0.9,0 1.8,0 1.8,-1.1c0,-0.9 -0.8,-1.1 -1.5,-1.1l-1.4,0l0,2.2m-1.1,-3.1l2.7,0c1.6,0 2.4,0.6 2.4,2c0,1.3 -0.8,1.8 -1.8,1.9l2,3l-1.2,0l-1.9,-3l-1.1,0l0,3l-1.1,0l0,-6.9zm2.3,8.5c2.7,0 4.8,-2.2 4.8,-5.1c0,-2.8 -2.1,-5 -4.8,-5c-2.8,0 -4.9,2.2 -4.9,5c0,2.9 2.2,5.1 4.9,5.1m0,-10.9c3.2,0 5.9,2.5 5.9,5.9c0,3.4 -2.7,5.9 -5.9,5.9c-3.2,0 -5.9,-2.5 -5.9,-5.9c0,-3.4 2.7,-5.9 5.9,-5.9" class="st0"/>
   <path id="svg_28" fill="#F58220" d="m52,50.8c1.1,4.4 10.9,50.8 12.8,61.2c1.4,7.8 6.9,8.9 9.9,9c3.3,0 5.9,0 9.3,-0.7c3.1,-0.7 4.5,-0.7 4.1,-4.4c-0.3,-3.7 0.2,-18.5 4.7,-25.5c0,0 3,9.7 4.3,21.5c0.3,3.3 2.2,6.5 4.7,7.8c2.9,1.5 12,1.8 16.3,0.1c1.9,-0.7 2.2,-1.5 3.1,-11.8c0.3,-3.7 4.4,-44.4 16.8,-66.5c0,0 -4.4,-6.7 -13.6,-6.8c-3,0 -4.4,-0.9 -7.4,4.7c-3.4,6.3 -8,25.1 -8.8,30.3c0,0 -5.1,-10 -5.7,-30c-0.1,-3 -1.1,-3.3 -2.9,-3.4c-1.8,0 -7.7,-1 -10.4,-0.5c-3.1,0.7 -4,-0.6 -3.1,10.7c0,0 -5,21.4 -5.4,28.8c0,0 -9.1,-19.7 -5.6,-37.8c0,0 -12.2,-3.8 -19.6,0.6c-7.5,4.5 -4.3,9.7 -3.5,12.7" class="st0"/>
   <path id="svg_29" fill="#F58220" d="m155.7,86.4c1.1,0 8.9,-0.3 10.4,0.1c1.5,0.4 1.1,0 1.1,1.9c0,1.8 -2.4,17.4 -1.6,20c0.7,2.6 1.1,3.7 2.5,5.2c1.5,1.5 6.7,6.6 9.3,7c2.6,0.4 3.3,-1.8 3.7,-3.7s10.4,-57.1 10.8,-61.6c0.4,-4.4 0.8,-8.1 -2.1,-11.5c-2.9,-3.4 -9.6,-7.8 -15.1,-7.2c-3,0.3 -2.6,-1.1 -3,4.4c-0.4,5.5 -1.7,24.4 -2.1,26.3c-0.4,1.8 -0.3,1.5 -2.2,1.5c-1.1,-0.1 -9.1,0 -10.4,-0.1c-1.2,-0.1 -1.3,0.2 -1.1,-2.2c0.1,-1.5 0.5,-25.1 1.4,-28.5c0.4,-1.5 0.2,-1.9 -2,-1.9c-2.2,0 -8,-0.4 -11.7,1.8c-3.7,2.2 -4.7,1.9 -6.4,9.9c-3.1,14.4 -2.7,54 -2,60.3c0.7,6.3 9.2,10.4 13.6,12c4.4,1.5 5.5,0.8 5.6,-2.2c0,-3 0.2,-28.1 0.2,-29.6c0,-1.9 -0.1,-1.9 1.1,-1.9" class="st0"/>
   <path id="svg_30" fill="#F58220" d="m210,82.8l5.1,-21.3l5.2,21.8l-10.3,-0.5m22.5,-26.8c-1.1,-4.5 0.4,-6.7 -4.3,-11.5c-5.7,-5.8 -14,-8.3 -16.2,-7.9c-2.2,0.4 -1.5,-0.4 -4.5,2.6c-3,2.9 -19,56.5 -19.7,58.7c-0.8,2.2 -1.9,2.9 -0.8,6.7c2,6.8 7.7,13.4 11.3,15.3c3.7,1.9 3.7,-1.1 4.1,-3.3c0.4,-2.2 4.2,-15.1 4.6,-17c0.4,-1.8 0.7,-1.3 2.2,-1.5c1.7,-0.2 9.2,-0.2 10.3,-0.2c1.7,0 1.3,0 1.9,1.8c1.1,3 2.4,10.6 3.5,12.4c1.8,3 15.8,9.1 18,9.6c0,0 3.2,0 3.2,-1.4c0,-4.5 -12.5,-59.8 -13.6,-64.3" class="st0"/>
   <path id="svg_31" fill="#F58220" d="m294.6,82.2l5.7,-22.9l5,23.6l-10.7,-0.7m22.5,-25.1c-2.5,-10.1 -1.9,-8.9 -4.6,-11.5c-6,-5.8 -13.5,-8.6 -15.8,-8.3c-2.3,0.4 -3.6,0.3 -6.8,3.3c-3.1,2.9 -17.8,55.7 -18.6,58c-0.8,2.2 -1.5,4.3 -0.4,8c2.1,6.8 8.7,10.2 12.6,12c3.9,1.9 3.9,-1.1 4.3,-3.3c0.4,-2.2 2.3,-14.8 2.7,-16.6c0.4,-1.8 0.8,-1.1 2.3,-1.5c1.5,-0.4 9.8,0.1 11,0.1c1.2,0 2.4,-0.7 3.2,1.8c1.3,3.6 2.9,11.2 4.1,13.1c1.9,3 13.2,7.9 15.5,7.9c2.3,0 5.2,-0.7 4.9,-4.8c-0.3,-4.3 -13.3,-53.8 -14.4,-58.2" class="st0"/>
   <path id="svg_32" fill="#F58220" d="m284.7,37.3c-6.1,-0.6 -20.5,-0.5 -24.4,-0.2c-3.3,0.2 -10.6,0.6 -14.6,2c-4.1,1.4 -6.7,2.5 -7.8,3.6c-1.1,1.1 -1.5,1.5 -1.5,4.1c0,2.6 -0.4,5.5 -0.4,7.4c0,1.9 0.3,3.3 1.8,4.1c1.5,0.8 3.7,-1.1 12.2,-1.7c0,0 -0.1,12.2 -0.9,17.4c-0.8,5.2 -2.7,26.6 -2.4,32.2c0,0 0.8,5.8 13.8,14c2,1.2 3,0.1 4.5,-1.4c0.9,-0.9 0.5,-2.9 0.5,-4c0,-1.1 -0.1,-29.6 4.6,-60.7c0,0 8.1,-2.4 11.9,-3.2c0,0 3.6,-9.3 4.5,-11.1c0.7,-1.7 -1.8,-2.5 -1.8,-2.5" class="st0"/>
   <path id="svg_33" fill="#F58220" d="m363.2,101.9c-2.6,2.9 -8.5,1.8 -10,1.4c-1.5,-0.4 -2.6,-2.2 -2.9,-4.1c-0.4,-1.8 -0.8,-9.4 -1,-11.9c-0.5,-6.1 -0.3,-4.7 2.3,-4.3c2.6,0.4 8.9,4.2 11,6.9c1.8,2.4 3.2,9.1 0.6,12m-14.2,-34.2c0,-1.5 0.1,-12.9 0.1,-14.8c0,-1.9 0.4,-3 2.2,-2.6c1.9,0.4 3,-0.3 6.6,3.8c3.7,4.1 5.2,12.2 3.3,14.6c-4.9,6.2 -10.1,1.9 -11.2,1.6c-1,-0.4 -1,-1.1 -1,-2.6m34.6,25.1c-0.7,-3 -5.5,-11.1 -10.2,-13.8c0,0 4.1,-3.7 5.6,-8.1c1.5,-4.4 1.9,-19.2 -9.4,-28.6c-5.1,-4.2 -10.7,-6.1 -14.8,-6.8c-2.7,-0.5 -14.1,2.8 -17,2.8c-3,0 -4.1,0.3 -5.2,5.1c-3.3,13.7 -4.5,39.6 0.6,65.5c0.9,4.8 2.1,8.5 7.3,9.7c5.2,1.2 11.1,1.2 11.9,-1.8c0,0 8.1,3.8 12.9,3.4c4.8,-0.3 17.1,-3.5 19.4,-16.9c0.7,-4.1 -0.4,-7.5 -1.1,-10.5" class="st0"/>
   <path id="svg_34" fill="#F58220" d="m404.4,43c-0.8,4.5 -2.9,40.7 3.2,55.9c2.5,6.3 6.6,7 8.5,-0.3c3.4,-13.3 4.9,-31.3 0.1,-54.8c-1.1,-5.2 -2.2,-4.4 3,-4.8c2.2,-0.2 11.1,-0.6 13.3,-0.6c2.2,0 4.6,4.1 5.1,6.3c2.8,13 1,35.5 -2.2,45.9c-4.2,13.3 -7.6,20.7 -15.8,27.6c-5.6,4.8 -15.6,3.9 -22.9,-4.3c-6.7,-7.5 -11.3,-20.8 -13,-34.5c-0.9,-7.1 -1.7,-23.3 0.7,-36.3c0.6,-3.5 2.6,-4.8 4.9,-5.1c2.2,-0.4 10,-0.2 13.3,1.6c2.4,1.4 2.3,0.8 1.8,3.4" class="st0"/>
   <path id="svg_35" fill="#F58220" d="m473.8,62.1c-0.4,6.3 -4.3,11.2 -11.2,15.1c-3,1.7 -2.2,0.4 -2.6,-1.9c-0.9,-5.6 0.9,-17.8 1.3,-20c0.4,-2.2 0,0 1.5,-1.5c1.5,-1.5 3.3,0 6.7,-0.3c3.3,-0.3 4.7,2.3 4.3,8.6m18,53.8c-8.2,-12.5 -16,-31.6 -16,-31.6c2.6,-1.8 9.3,-8.8 12.3,-14.3c3,-5.5 5.7,-18.5 0.2,-25.2c-4.9,-6 -12.1,-8.2 -26.2,-5c0,0 -0.9,-1 -1.8,-2.2c-0.7,-1 -2.6,-1.5 -6.3,-0.8c-3.7,0.7 -6.1,0.7 -7.8,5.5c-6.4,17.7 -6.7,46.6 -4.3,65.1c0.5,3.7 0.5,6.3 3.1,8.2c5.9,4.3 12,5.7 14.9,5.3s3.1,-0.3 2.2,-3.3c-2.2,-7.4 -1.7,-20.7 -1.7,-20.7c13.3,20.4 18,22.1 20.3,23.2c2.2,1.1 7.3,1.1 9.5,0c3.9,-1.9 3.6,-1.1 1.6,-4.2" class="st0"/>
   <path id="svg_36" fill="#F58220" d="m614.8,65.2c-1.5,5.2 -8,9 -10.8,11c-4.1,2.9 -3.1,0.9 -3,-1.4c0.3,-6.8 1.8,-16.1 2.5,-18.2c0.5,-1.5 0.4,-2.7 2.4,-3.4c1.7,-0.5 3.7,-1.3 6.6,0.5c2.9,1.9 4.1,5.4 2.3,11.5m20.3,51.6c-8.9,-12.1 -16.8,-34.5 -16.8,-34.5c2.6,-1.8 8.9,-7.5 11.9,-13.1c3,-5.5 4.7,-15.7 0.4,-23.2c-5.1,-8.9 -14.4,-11.2 -30.7,-6.2c0,0 -1.5,-1.5 -2.8,-2.2c-1.6,-0.7 -2.8,-1.1 -4.2,-0.9c-3.7,0.7 -4.7,2 -6,7c-5.1,19.2 -5.9,39.4 -4.6,59.2c0.3,3.8 0.2,4.9 2.2,7.4c4.8,6 11.4,9 14.4,8.6c3,-0.3 2.9,-0.2 2.3,-3.3c-1.7,-7.3 -0.5,-21.9 -0.5,-21.9c13.1,21.6 18.6,22.4 20.8,23.6c2.2,1.1 10,4.5 12.2,3.4c2.1,-0.9 2.5,-2.4 1.4,-3.9" class="st0"/>
   <path id="svg_37" fill="#F58220" d="m511.4,38c-4.8,2.9 -12.6,7.3 -21.4,35c-3.6,11.3 -1.4,29.6 4.9,37.4c6.2,7.8 10.7,9.3 13.6,10.5c2.9,1.1 4.4,0.4 6.7,-1.1c2.2,-1.5 5.9,-2.9 7.4,-4.4c1.5,-1.5 7.5,-8.5 8.7,-19.9c0,0 1.9,-0.4 3.7,-1.1c1.9,-0.7 2.6,-2.2 3.4,-5.2c0.8,-3 1.5,-6.3 1.2,-8.1c-0.4,-1.9 -2.6,-3.1 -8.2,-3.6c-9.6,-0.7 -15.5,1.8 -16.9,2.6c-2.1,1.2 -1.9,1.1 -2.6,4.4c-0.8,3.3 -1.2,7 -0.8,8.9c0.4,1.9 1.1,1.9 2.6,1.9c1.5,0 0.7,0.8 0,2.6c-0.8,1.8 -2.6,2.6 -3.4,3.7c-0.8,1.1 -2.9,0 -3.3,-2.2c-1.8,-10 1.3,-31.8 11.5,-45.4c5.2,-7 4.4,3.7 3.6,6c-0.8,2.2 -0.4,4.4 1.8,4.8c2.2,0.4 8.9,0.8 10.7,-0.3c1.9,-1.1 4.1,-3.7 4.5,-5.1c0.4,-1.5 1.6,-11.8 -2.1,-15.9c-3.7,-4.1 -4.8,-6 -17.3,-7.2c-3.5,-0.4 -5,-0.3 -8.3,1.7" class="st0"/>
   <path id="svg_38" fill="#F58220" d="m579.5,36.7c-2.2,0.4 -7.4,0.7 -10,0.7c-2.6,0 -13.3,-0.9 -18.1,1c-4.8,1.8 -5.2,1.8 -6,5.9c-0.8,4.1 -3,8.5 -2.8,19.2c0.3,10.7 -1.8,33.3 -2.9,39.6c0,0 -5.2,5.9 -4.9,8.8c0.3,3 1.8,4.1 3.3,5.6c1.5,1.5 2.6,2.6 3.7,3c1.1,0.4 14.8,-3.9 29.6,-2.7c0,0 5.6,-8.8 6.4,-12.5c0.8,-3.7 0.4,-5.5 -2.5,-5.9c-4.1,-0.7 -7.9,-1 -13.3,-0.1c-1.9,0.3 -2.1,0.4 -2.2,-2.2c0,-1.1 0.2,-10.9 0.2,-10.9s0.2,-1.3 1.7,-1.6c1.5,-0.4 10.1,-1.4 12.3,-1.7c0,0 2.2,-7.3 3.3,-9.5c1.9,-3.7 -3.5,-4.9 -1.6,-4.5c-2.2,-0.6 -10.5,0.4 -13.9,1c-1.9,0.4 -0.3,-1.9 -0.2,-3.4c0,-1.5 0.8,-8.5 1.2,-10.4c0,0 10.5,-1.9 12,-1.9c0,0 2.9,-2.7 6.7,-7.4c4.2,-5.7 4.7,-11.1 -2,-10.1" class="st0"/>
  </g>
 </g>
</svg>